<svg width="155" height="72" viewBox="0 0 155 72" fill="none" xmlns="http://www.w3.org/2000/svg">
<path d="M131.268 36.431C131.268 37.5911 131.114 38.7103 130.807 39.7884C130.511 40.8548 130.086 41.8567 129.53 42.7942C128.974 43.72 128.312 44.5696 127.543 45.3431C126.775 46.1048 125.917 46.761 124.971 47.3118C124.025 47.8626 123.008 48.2903 121.921 48.595C120.845 48.888 119.721 49.0345 118.551 49.0345H110.888V23.8275H118.551C119.721 23.8275 120.845 23.9798 121.921 24.2845C123.008 24.5775 124.025 24.9993 124.971 25.5501C125.917 26.1009 126.775 26.763 127.543 27.5364C128.312 28.2982 128.974 29.1478 129.53 30.0853C130.086 31.011 130.511 32.013 130.807 33.0911C131.114 34.1575 131.268 35.2708 131.268 36.431ZM126.177 36.431C126.177 35.388 125.976 34.4095 125.574 33.4954C125.184 32.5814 124.64 31.7845 123.943 31.1048C123.257 30.4134 122.447 29.8685 121.513 29.47C120.59 29.0716 119.603 28.8724 118.551 28.8724H116.014V43.9896H118.551C119.603 43.9896 120.59 43.7962 121.513 43.4095C122.447 43.011 123.257 42.472 123.943 41.7923C124.64 41.1009 125.184 40.2982 125.574 39.3841C125.976 38.4583 126.177 37.4739 126.177 36.431Z" fill="white"/>
<path d="M155 41.4759C155 42.5189 154.799 43.4974 154.397 44.4114C153.995 45.3255 153.445 46.1282 152.747 46.8196C152.062 47.4993 151.258 48.0384 150.335 48.4368C149.413 48.8353 148.426 49.0345 147.373 49.0345H134.656V23.8275H147.373C148.426 23.8275 149.413 24.0267 150.335 24.4251C151.258 24.8235 152.062 25.3685 152.747 26.0599C153.445 26.7396 153.995 27.5364 154.397 28.4505C154.799 29.3646 155 30.3431 155 31.386C155 31.8548 154.935 32.3353 154.805 32.8274C154.675 33.3196 154.492 33.7942 154.255 34.2513C154.019 34.7083 153.735 35.1243 153.404 35.4993C153.073 35.8743 152.706 36.1849 152.304 36.431C152.718 36.6536 153.09 36.9583 153.421 37.345C153.753 37.72 154.036 38.136 154.273 38.5931C154.509 39.0501 154.687 39.5306 154.805 40.0345C154.935 40.5267 155 41.0071 155 41.4759ZM139.746 43.9896H147.373C147.728 43.9896 148.059 43.9251 148.366 43.7962C148.674 43.6673 148.94 43.4915 149.165 43.2689C149.401 43.0345 149.584 42.7649 149.714 42.4603C149.844 42.1556 149.91 41.8274 149.91 41.4759C149.91 41.1243 149.844 40.7962 149.714 40.4915C149.584 40.1868 149.401 39.9232 149.165 39.7005C148.94 39.4661 148.674 39.2845 148.366 39.1556C148.059 39.0267 147.728 38.9622 147.373 38.9622H139.746V43.9896ZM139.746 33.9173H147.373C147.728 33.9173 148.059 33.8528 148.366 33.7239C148.674 33.595 148.94 33.4192 149.165 33.1966C149.401 32.9622 149.584 32.6927 149.714 32.388C149.844 32.0716 149.91 31.7376 149.91 31.386C149.91 31.0345 149.844 30.7064 149.714 30.4017C149.584 30.097 149.401 29.8333 149.165 29.6107C148.94 29.3763 148.674 29.1946 148.366 29.0657C148.059 28.9368 147.728 28.8724 147.373 28.8724H139.746V33.9173Z" fill="white"/>
<path fill-rule="evenodd" clip-rule="evenodd" d="M0 59.5862H154.695V65.7931C154.695 69.2211 150.63 72 145.614 72H9.08131C4.06584 72 0 69.2211 0 65.7931V59.5862ZM18.1626 62.5826H31.3149C33.0443 62.5826 34.4463 63.5409 34.4463 64.723V66.8633C34.4463 68.0453 33.0443 69.0036 31.3149 69.0036H18.1626C16.4331 69.0036 15.0311 68.0453 15.0311 66.8633V64.723C15.0311 63.5409 16.4331 62.5826 18.1626 62.5826ZM66.3875 62.5826H53.2353C51.5058 62.5826 50.1038 63.5409 50.1038 64.723V66.8633C50.1038 68.0453 51.5058 69.0036 53.2353 69.0036H66.3875C68.117 69.0036 69.519 68.0453 69.519 66.8633V64.723C69.519 63.5409 68.117 62.5826 66.3875 62.5826ZM88.3079 62.5826H101.46C103.19 62.5826 104.592 63.5409 104.592 64.723V66.8633C104.592 68.0453 103.19 69.0036 101.46 69.0036H88.3079C86.5784 69.0036 85.1764 68.0453 85.1764 66.8633V64.723C85.1764 63.5409 86.5784 62.5826 88.3079 62.5826ZM136.533 62.5826H123.381C121.651 62.5826 120.249 63.5409 120.249 64.723V66.8633C120.249 68.0453 121.651 69.0036 123.381 69.0036H136.533C138.262 69.0036 139.664 68.0453 139.664 66.8633V64.723C139.664 63.5409 138.262 62.5826 136.533 62.5826Z" fill="white"/>
<path fill-rule="evenodd" clip-rule="evenodd" d="M0 12.4138H154.695V6.2069C154.695 2.77892 150.63 0 145.614 0H9.08131C4.06584 0 0 2.77892 0 6.2069V12.4138ZM18.1626 9.41736H31.3149C33.0443 9.41736 34.4463 8.45911 34.4463 7.27705V5.13674C34.4463 3.95468 33.0443 2.99643 31.3149 2.99643H18.1626C16.4331 2.99643 15.0311 3.95468 15.0311 5.13674V7.27705C15.0311 8.45911 16.4331 9.41736 18.1626 9.41736ZM66.3875 9.41736H53.2353C51.5058 9.41736 50.1038 8.45911 50.1038 7.27705V5.13674C50.1038 3.95468 51.5058 2.99643 53.2353 2.99643H66.3875C68.117 2.99643 69.519 3.95468 69.519 5.13674V7.27705C69.519 8.45911 68.117 9.41736 66.3875 9.41736ZM88.3079 9.41736H101.46C103.19 9.41736 104.592 8.45911 104.592 7.27705V5.13674C104.592 3.95468 103.19 2.99643 101.46 2.99643H88.3079C86.5784 2.99643 85.1764 3.95468 85.1764 5.13674V7.27705C85.1764 8.45911 86.5784 9.41736 88.3079 9.41736ZM136.533 9.41736H123.381C121.651 9.41736 120.249 8.45911 120.249 7.27705V5.13674C120.249 3.95468 121.651 2.99643 123.381 2.99643H136.533C138.262 2.99643 139.664 3.95468 139.664 5.13674V7.27705C139.664 8.45911 138.262 9.41736 136.533 9.41736Z" fill="white"/>
<path d="M25.4322 49.4364H20.3564V30.8182C20.3564 30.4545 20.2855 30.1152 20.1435 29.8C20.0133 29.4848 19.8299 29.2121 19.5933 28.9818C19.3685 28.7394 19.1023 28.5515 18.7947 28.4182C18.487 28.2848 18.1557 28.2182 17.8008 28.2182C17.4458 28.2182 17.1146 28.2848 16.8069 28.4182C16.4993 28.5515 16.2272 28.7394 15.9905 28.9818C15.7657 29.2121 15.5883 29.4848 15.4581 29.8C15.328 30.1152 15.2629 30.4545 15.2629 30.8182V49.4364H10.1693V30.8182C10.1693 30.4545 10.1043 30.1152 9.97413 29.8C9.84398 29.4848 9.66059 29.2121 9.42395 28.9818C9.19915 28.7394 8.93294 28.5515 8.62531 28.4182C8.31769 28.2848 7.9864 28.2182 7.63145 28.2182C7.2765 28.2182 6.94521 28.2848 6.63758 28.4182C6.32996 28.5515 6.05783 28.7394 5.8212 28.9818C5.5964 29.2121 5.41892 29.4848 5.28877 29.8C5.15862 30.1152 5.09355 30.4545 5.09355 30.8182V49.4364H0V30.8182C0 29.7394 0.195223 28.7273 0.585669 27.7818C0.987947 26.8242 1.53221 25.9939 2.21844 25.2909C2.91651 24.5758 3.72699 24.0182 4.64986 23.6182C5.58456 23.2061 6.57843 23 7.63145 23C8.57798 23 9.48903 23.1758 10.3646 23.5273C11.2401 23.8667 12.0269 24.3636 12.725 25.0182C13.4231 24.3636 14.204 23.8667 15.0677 23.5273C15.9432 23.1758 16.8543 23 17.8008 23C18.8538 23 19.8418 23.2061 20.7646 23.6182C21.6993 24.0182 22.5098 24.5758 23.1961 25.2909C23.8941 25.9939 24.4384 26.8242 24.8288 27.7818C25.2311 28.7273 25.4322 29.7394 25.4322 30.8182V49.4364Z" fill="#81BECB"/>
<path d="M54.9287 36.5091C54.9287 37.7455 54.769 38.9394 54.4495 40.0909C54.1419 41.2303 53.7041 42.303 53.1362 43.3091C52.5683 44.303 51.882 45.2121 51.0775 46.0364C50.2729 46.8606 49.3855 47.5697 48.4153 48.1636C47.4451 48.7455 46.398 49.1939 45.274 49.5091C44.15 49.8364 42.9846 50 41.7777 50C40.5709 50 39.4055 49.8364 38.2815 49.5091C37.1693 49.1939 36.1222 48.7455 35.1402 48.1636C34.17 47.5697 33.2826 46.8606 32.478 46.0364C31.6735 45.2121 30.9813 44.303 30.4016 43.3091C29.8336 42.303 29.3899 41.2303 29.0705 40.0909C28.7629 38.9394 28.6091 37.7455 28.6091 36.5091C28.6091 35.2727 28.7629 34.0788 29.0705 32.9273C29.3899 31.7758 29.8336 30.703 30.4016 29.7091C30.9813 28.7152 31.6735 27.8061 32.478 26.9818C33.2826 26.1576 34.17 25.4545 35.1402 24.8727C36.1222 24.2909 37.1693 23.8424 38.2815 23.5273C39.4055 23.2 40.5709 23.0364 41.7777 23.0364C42.9846 23.0364 44.15 23.2 45.274 23.5273C46.398 23.8424 47.4451 24.2909 48.4153 24.8727C49.3855 25.4545 50.2729 26.1576 51.0775 26.9818C51.882 27.8061 52.5683 28.7152 53.1362 29.7091C53.7041 30.703 54.1419 31.7758 54.4495 32.9273C54.769 34.0788 54.9287 35.2727 54.9287 36.5091ZM49.8706 36.5091C49.8706 35.3697 49.6577 34.297 49.2317 33.2909C48.8058 32.2727 48.226 31.3939 47.4925 30.6545C46.7707 29.903 45.9129 29.3091 44.9191 28.8727C43.937 28.4364 42.8899 28.2182 41.7777 28.2182C40.6537 28.2182 39.6007 28.4364 38.6187 28.8727C37.6366 29.3091 36.7788 29.903 36.0453 30.6545C35.3117 31.3939 34.732 32.2727 34.306 33.2909C33.8801 34.297 33.6671 35.3697 33.6671 36.5091C33.6671 37.6485 33.8801 38.7212 34.306 39.7273C34.732 40.7212 35.3117 41.5939 36.0453 42.3455C36.7788 43.097 37.6366 43.6909 38.6187 44.1273C39.6007 44.5636 40.6537 44.7818 41.7777 44.7818C42.8899 44.7818 43.937 44.5636 44.9191 44.1273C45.9129 43.6909 46.7707 43.097 47.4925 42.3455C48.226 41.5939 48.8058 40.7212 49.2317 39.7273C49.6577 38.7212 49.8706 37.6485 49.8706 36.5091Z" fill="#81BECB"/>
<path d="M77.2728 23.3636L68.9138 49.4364H63.8202L55.4966 23.3636H61.2823L66.3581 40.7636L71.4517 23.3636H77.2728Z" fill="#81BECB"/>
<path d="M84.8156 49.4364H79.722V23.3636H84.8156V49.4364Z" fill="#81BECB"/>
<path d="M107 49.4364H89.5542V23.3636H107V28.5818H94.6477V33.8H103.007V39.0182H94.6477V44.2182H107V49.4364Z" fill="#81BECB"/>
</svg>
